<svg xmlns="http://www.w3.org/2000/svg" viewBox="0 0 32 32" id="Browser"><path fill="#1E88E5" d="M1 3h30c.553 0 1 .485 1 1.084v23.832c0 .599-.447 1.084-1 1.084H1c-.553 0-1-.485-1-1.084V4.084C0 3.486.448 3 1 3z" class="color5b647d svgShape"></path><path fill="#f7f7f8" d="M1.938 7h28.125c.518 0 .938.392.938.875v19.25c0 .483-.42.875-.938.875H1.938C1.42 28 1 27.608 1 27.125V7.875C1 7.392 1.42 7 1.938 7z" class="colorf7f7f8 svgShape"></path><path fill="#f0eff2" d="M30 5a1 1 0 1 1-2 0 1 1 0 1 1 2 0zm-3 0a1 1 0 1 1-2 0 1 1 0 1 1 2 0zm-3 0a1 1 0 1 1-2 0 1 1 0 1 1 2 0z" class="coloreff0f2 svgShape"></path><path fill="#a49db1" d="M11.924 14.984a.983.983 0 1 1-1.966 0 .983.983 0 0 1 1.966 0zm10.022 0a.983.983 0 1 1-1.966 0 .983.983 0 0 1 1.966 0zM19 20a3 3 0 1 1-6 .006v-.01" class="color9da2b1 svgShape"></path></svg>