<svg xmlns="http://www.w3.org/2000/svg" viewBox="0 0 32 32" id="Browser">
  <!-- 1) fill="#6829e6" -> #0C29D0 (primary) -->
  <path fill="#0C29D0" d="M1 3h30c.552 0 1 .485 1 1.084v23.832c0 .6-.448 1.084-1 1.084H1c-.554 0-1-.485-1-1.084V4.084C0 3.486.446 3 1 3z"></path>
  
  <!-- 2) fill="#712aff" -> #1E88E5 (secondary) -->
  <path fill="#1E88E5" d="M1.938 7h28.125c.518 0 .938.392.938.875v19.25c0 .483-.42.875-.939.875H1.938C1.42 28 1 27.608 1 27.125V7.875C1 7.392 1.42 7 1.938 7z"></path>
  
  <!-- 3) fill="#7e45ef" -> #1F2937 (bg-dark) -->
  <path fill="#1F2937" d="M30 5a1 1 0 1 1-2 0 1 1 0 1 1 2 0z"></path>
  
  <!-- 4) fill="#f0eff2" -> #FFFFFF (text-white) -->
  <path fill="#FFFFFF" d="M27 5a1 1 0 1 1-2 0 1 1 0 1 1 2 0zm-3 0a1 1 0 1 1-2 0 1 1 0 1 1 2 0z"></path>
  
  <!-- 5) fill="#6829e6" -> #0C29D0 (primary) novamente -->
  <path fill="#0C29D0" d="M11.923 14.984a.983.983 0 1 1-1.965 0 .983.983 0 0 1 1.965 0zm10.022 0a.983.983 0 1 1-1.965 0 .983.983 0 0 1 1.965 0zM19 20a3 3 0 1 1-6 .006v-.01"></path>
</svg>
