<svg width="17" height="30" viewBox="0 0 17 21" fill="none" xmlns="http://www.w3.org/2000/svg">
<path d="M2.19913 18.2229L4.81965 17.1599C4.6054 16.5336 4.41998 15.8991 4.26341 15.2563C4.10684 14.6135 3.97087 13.9625 3.8555 13.3033L2.19913 14.4157V18.2229ZM6.30296 16.9374H10.9507C11.3133 15.965 11.5934 14.9967 11.7912 14.0326C11.989 13.0684 12.0879 12.2237 12.0879 11.4986C12.0879 9.60322 11.8159 7.93861 11.2721 6.50474C10.7282 5.07087 9.84643 3.71117 8.62682 2.42563C7.40721 3.71117 6.52546 5.07087 5.98158 6.50474C5.4377 7.93861 5.16576 9.60322 5.16576 11.4986C5.16576 12.2237 5.26465 13.0684 5.46242 14.0326C5.6602 14.9967 5.94038 15.965 6.30296 16.9374ZM8.62682 11.2513C8.14887 11.2513 7.74095 11.0824 7.40309 10.7445C7.06522 10.4067 6.89629 9.99877 6.89629 9.52081C6.89629 9.04285 7.06522 8.63494 7.40309 8.29708C7.74095 7.95921 8.14887 7.79028 8.62682 7.79028C9.10478 7.79028 9.51269 7.95921 9.85056 8.29708C10.1884 8.63494 10.3574 9.04285 10.3574 9.52081C10.3574 9.99877 10.1884 10.4067 9.85056 10.7445C9.51269 11.0824 9.10478 11.2513 8.62682 11.2513ZM15.0545 18.2229V14.4157L13.3981 13.3033C13.2828 13.9625 13.1468 14.6135 12.9902 15.2563C12.8337 15.8991 12.6482 16.5336 12.434 17.1599L15.0545 18.2229ZM8.62682 0.398438C10.3079 1.88175 11.5522 3.52575 12.3598 5.33045C13.1674 7.13515 13.5712 9.19119 13.5712 11.4986V11.6222L15.8703 13.1796C16.0846 13.3115 16.2494 13.4846 16.3648 13.6988C16.4801 13.9131 16.5378 14.1438 16.5378 14.391V20.3984L11.5934 18.4207H5.6602L0.71582 20.3984V14.391C0.71582 14.1438 0.773505 13.9131 0.888874 13.6988C1.00424 13.4846 1.16905 13.3115 1.38331 13.1796L3.68245 11.6222V11.4986C3.68245 9.19119 4.08624 7.13515 4.89382 5.33045C5.7014 3.52575 6.94573 1.88175 8.62682 0.398438Z" fill="url(#paint0_linear_249_95)"/>
<defs>
<linearGradient id="paint0_linear_249_95" x1="8.62682" y1="0.398437" x2="8.62682" y2="20.3984" gradientUnits="userSpaceOnUse">
<stop offset="0.286458" stop-color="#6829E6"/>
<stop offset="1" stop-color="#6829E6"/>
</linearGradient>
</defs>
</svg>
