<?xml version="1.0" encoding="utf-8"?>
<!-- Generator: Adobe Illustrator 24.1.0, SVG Export Plug-In . SVG Version: 6.00 Build 0)  -->
<svg version="1.1" id="Layer_1" xmlns="http://www.w3.org/2000/svg" xmlns:xlink="http://www.w3.org/1999/xlink" x="0px" y="0px"
	 viewBox="0 0 500 245" style="enable-background:new 0 0 500 245;" xml:space="preserve">
<style type="text/css">
	.st0{fill:#51518C;}
</style>
<path class="st0" d="M393.3,200.2h19.9v-132h-19.9V200.2z M367,200.2h21.5L365,122.3l22.8-54.1h-21l-19.6,52.9V68.3h-19.9v132h19.9
	v-45.9l5.1-14.5L367,200.2L367,200.2z M283.9,160.8l4.6-54.2l1.5-16.9l1.5,16.9l4.6,54.2H283.9z M299.3,200.2h21.9l-17.9-132h-26.6
	l-17.9,132h21.9l2-23.7h14.8L299.3,200.2L299.3,200.2z M240.3,125.1c0,2.4-0.5,4.1-1.6,5.1c-1.1,1-2.6,1.5-4.6,1.5H227V84h7.1
	c2.1,0,3.6,0.5,4.7,1.5c1,1,1.6,2.7,1.6,5.3V125.1L240.3,125.1z M234.1,68.3h-27v132H227v-52.8h7.1c9.5,0,16.3-1.9,20.2-5.7
	c3.9-3.8,5.9-10.1,5.9-19V92.9c0-8.9-2-15.2-5.9-19C250.3,70.2,243.6,68.3,234.1,68.3z M163.6,160.8l4.6-54.2l1.5-16.9l1.5,16.9
	l4.6,54.2H163.6z M179,200.2h21.9l-17.9-132h-26.6l-17.9,132h21.9l2-23.7H177L179,200.2L179,200.2z M120,125.1
	c0,2.4-0.5,4.1-1.6,5.1c-1.1,1-2.6,1.5-4.6,1.5h-7.1V84h7.1c2.1,0,3.6,0.5,4.7,1.5c1,1,1.6,2.7,1.6,5.3V125.1z M113.8,68.3h-27v132
	h19.9v-52.8h7.1c9.5,0,16.3-1.9,20.2-5.7c3.9-3.8,5.9-10.1,5.9-19V92.9c0-8.9-2-15.2-5.9-19C130,70.2,123.3,68.3,113.8,68.3z
	 M98.7,49.6c-0.1-0.5-0.4-0.9-0.6-1.3c-0.2-0.4-0.6-0.7-0.9-1c-0.4-0.3-0.8-0.5-1.2-0.6c-0.5-0.1-1-0.2-1.5-0.2
	c-0.9,0-1.7,0.2-2.4,0.7c-0.7,0.5-1.3,1.1-1.7,2c-0.4,0.9-0.6,2-0.6,3.2c0,1.3,0.2,2.4,0.6,3.2c0.4,0.9,1,1.5,1.7,2
	c0.7,0.5,1.6,0.7,2.5,0.7c0.8,0,1.6-0.2,2.2-0.5c0.6-0.4,1.2-0.9,1.5-1.5c0.4-0.7,0.5-1.5,0.5-2.4l0.5,0.1H95v-1.6h5.6v1.6
	c0,1.2-0.3,2.3-0.8,3.2c-0.5,0.9-1.2,1.6-2.1,2.1c-0.9,0.5-1.9,0.7-3.1,0.7c-1.3,0-2.5-0.3-3.5-0.9c-1-0.6-1.8-1.5-2.3-2.6
	c-0.5-1.1-0.8-2.5-0.8-4c0-1.2,0.2-2.2,0.5-3.2c0.3-0.9,0.8-1.7,1.3-2.4c0.6-0.6,1.3-1.2,2.1-1.5c0.8-0.4,1.7-0.5,2.6-0.5
	c0.8,0,1.5,0.1,2.2,0.4c0.7,0.2,1.3,0.6,1.8,1c0.5,0.4,1,0.9,1.3,1.5c0.4,0.6,0.6,1.2,0.7,2H98.7L98.7,49.6z M103.7,59.7V45h5
	c1.2,0,2.1,0.2,2.8,0.6c0.7,0.4,1.3,0.9,1.6,1.6c0.4,0.7,0.5,1.5,0.5,2.3c0,0.9-0.2,1.6-0.5,2.3c-0.4,0.7-0.9,1.2-1.6,1.6
	c-0.7,0.4-1.7,0.6-2.8,0.6h-4v-1.6h4c0.8,0,1.4-0.1,1.9-0.3c0.5-0.2,0.8-0.6,1.1-1c0.2-0.4,0.3-0.9,0.3-1.5c0-0.6-0.1-1.1-0.3-1.6
	c-0.2-0.4-0.6-0.8-1.1-1c-0.5-0.2-1.1-0.4-1.9-0.4h-3.1v13.2C105.5,59.7,103.7,59.7,103.7,59.7z M110.7,53.1l3.6,6.6h-2.1l-3.6-6.6
	H110.7L110.7,53.1z M126.4,45h1.8v9.8c0,1-0.2,1.9-0.7,2.7c-0.5,0.8-1.1,1.4-2,1.9c-0.9,0.5-1.9,0.7-3,0.7c-1.2,0-2.2-0.2-3-0.7
	c-0.9-0.5-1.5-1.1-2-1.9c-0.5-0.8-0.7-1.7-0.7-2.7V45h1.8v9.6c0,0.7,0.2,1.4,0.5,1.9c0.3,0.6,0.8,1,1.4,1.3c0.6,0.3,1.3,0.5,2.1,0.5
	s1.5-0.2,2.1-0.5c0.6-0.3,1-0.8,1.4-1.3c0.3-0.6,0.5-1.2,0.5-1.9L126.4,45L126.4,45z M131.8,59.7V45h5c1.2,0,2.1,0.2,2.8,0.6
	c0.7,0.4,1.3,1,1.6,1.7c0.4,0.7,0.5,1.5,0.5,2.4c0,0.9-0.2,1.7-0.5,2.4c-0.4,0.7-0.9,1.3-1.6,1.7c-0.7,0.4-1.7,0.6-2.8,0.6h-3.6
	v-1.6h3.5c0.8,0,1.4-0.1,1.9-0.4c0.5-0.3,0.8-0.6,1-1.1c0.2-0.5,0.3-1,0.3-1.6c0-0.6-0.1-1.1-0.3-1.6c-0.2-0.5-0.6-0.8-1.1-1.1
	c-0.5-0.3-1.1-0.4-1.9-0.4h-3.1v13.2C133.6,59.7,131.8,59.7,131.8,59.7z M157.2,52.4c0,1.6-0.3,2.9-0.8,4c-0.6,1.1-1.3,2-2.3,2.6
	c-1,0.6-2.1,0.9-3.4,0.9c-1.3,0-2.4-0.3-3.4-0.9c-1-0.6-1.8-1.5-2.3-2.6c-0.6-1.1-0.8-2.5-0.8-4c0-1.6,0.3-2.9,0.8-4
	c0.6-1.1,1.3-2,2.3-2.6c1-0.6,2.1-0.9,3.4-0.9c1.3,0,2.4,0.3,3.4,0.9c1,0.6,1.8,1.5,2.3,2.6C156.9,49.4,157.2,50.8,157.2,52.4z
	 M155.4,52.4c0-1.3-0.2-2.4-0.6-3.2c-0.4-0.9-1-1.5-1.7-2c-0.7-0.5-1.5-0.7-2.4-0.7s-1.7,0.2-2.4,0.7c-0.7,0.5-1.3,1.1-1.7,2
	c-0.4,0.9-0.6,2-0.6,3.2c0,1.3,0.2,2.4,0.6,3.2c0.4,0.9,1,1.5,1.7,2c0.7,0.5,1.5,0.7,2.4,0.7c0.9,0,1.7-0.2,2.4-0.7
	c0.7-0.5,1.3-1.1,1.7-2C155.2,54.7,155.4,53.6,155.4,52.4z"/>
</svg>
