<?xml version="1.0" standalone="no"?>
<!DOCTYPE svg PUBLIC "-//W3C//DTD SVG 20010904//EN"
 "http://www.w3.org/TR/2001/REC-SVG-20010904/DTD/svg10.dtd">
<svg version="1.0" xmlns="http://www.w3.org/2000/svg"
 width="653.000000pt" height="800.000000pt" viewBox="0 0 653.000000 800.000000"
 preserveAspectRatio="xMidYMid meet">

<g transform="translate(0.000000,800.000000) scale(0.100000,-0.100000)"
fill="#000000" stroke="none">
<path d="M3182 7970 c-129 -34 -292 -138 -306 -195 -4 -14 -22 -46 -41 -71
-21 -27 -35 -57 -35 -74 0 -16 -4 -31 -9 -35 -5 -3 -22 -27 -38 -53 l-28 -47
0 -252 c-1 -139 -4 -256 -9 -260 -4 -4 -16 3 -26 17 -52 70 -65 72 -76 15 -4
-21 1 -60 14 -107 12 -40 26 -102 32 -138 7 -36 20 -83 30 -105 10 -22 21 -51
25 -65 4 -14 14 -33 22 -42 16 -18 67 -33 81 -24 12 7 -3 88 -29 163 -22 63
-47 184 -41 201 5 15 32 3 32 -13 0 -7 14 -25 32 -40 21 -18 31 -35 31 -55 0
-18 5 -26 12 -23 18 6 30 -84 14 -103 -10 -13 -10 -17 2 -25 8 -5 20 -9 28 -9
11 0 11 -3 1 -15 -7 -8 -8 -15 -4 -15 16 0 39 -64 40 -112 0 -26 -3 -45 -8
-42 -4 3 -8 1 -8 -5 0 -5 6 -11 13 -14 10 -3 10 -9 0 -26 -7 -11 -13 -28 -13
-36 0 -20 -9 -19 -33 3 -19 17 -19 16 -4 -20 8 -20 17 -49 19 -65 1 -15 7 -31
12 -35 11 -7 18 -456 9 -526 -8 -66 -25 -36 -24 42 0 37 4 79 8 94 5 23 -2 18
-46 -30 -47 -52 -76 -70 -289 -179 -190 -97 -258 -126 -344 -149 -132 -36
-238 -79 -320 -132 -82 -52 -117 -85 -112 -106 4 -16 -24 -131 -75 -312 -22
-78 -56 -220 -66 -279 -3 -19 -9 -39 -13 -45 -4 -6 -10 -301 -13 -656 -5 -417
-11 -668 -18 -710 -18 -96 -58 -217 -85 -253 -13 -18 -21 -37 -19 -44 2 -7 -7
-24 -21 -38 -14 -14 -21 -25 -16 -25 6 0 6 -9 1 -22 -5 -13 -15 -22 -24 -22
-9 1 -13 -5 -10 -16 3 -10 0 -21 -6 -24 -7 -5 -9 0 -5 11 5 15 4 15 -4 3 -7
-8 -7 -19 -2 -25 10 -12 -24 -95 -39 -95 -6 0 -8 8 -4 18 9 26 -1 12 -33 -43
-15 -27 -21 -44 -13 -38 9 7 18 10 21 8 12 -12 -51 -151 -86 -192 -52 -61 -95
-103 -105 -103 -7 0 -9 5 -6 10 3 5 4 10 1 10 -2 0 -14 -15 -26 -32 -21 -31
-21 -32 -1 -9 19 21 21 21 28 5 4 -11 -1 -23 -16 -35 -12 -10 -20 -23 -16 -29
3 -6 -3 -10 -15 -10 -16 0 -20 -4 -16 -15 4 -10 -3 -20 -19 -27 -14 -6 -25
-15 -25 -19 0 -4 -10 -9 -22 -11 -13 -2 -22 -9 -20 -16 1 -7 -9 -17 -22 -23
-13 -6 -27 -20 -29 -30 -3 -11 -14 -19 -25 -19 -24 0 -55 -33 -57 -62 -1 -16
-22 -32 -77 -62 -42 -23 -88 -42 -103 -44 -15 -1 -42 -11 -60 -22 -18 -11 -41
-20 -52 -20 -26 0 -113 -58 -113 -76 0 -8 -6 -14 -14 -14 -21 0 -120 -59 -209
-125 -64 -47 -92 -76 -129 -135 -27 -41 -55 -91 -64 -110 -8 -19 -22 -49 -31
-65 -21 -42 -14 -69 19 -73 25 -3 26 -5 17 -35 -13 -46 -13 -184 1 -242 19
-81 95 -225 154 -294 184 -214 484 -375 926 -497 l125 -34 1930 -1 c1094 0
1921 -4 1910 -9 -39 -17 6 -10 119 20 246 63 591 254 843 465 211 177 379 403
443 594 26 78 22 104 -29 215 -30 65 -50 92 -92 129 -130 111 -127 109 -109
61 8 -23 -5 -13 -62 46 -54 55 -69 75 -56 78 15 3 15 6 -4 38 -20 33 -38 40
-92 35 -11 -1 -26 5 -35 13 -27 23 -119 66 -143 66 -34 0 -188 61 -188 75 0 6
-17 23 -37 36 -21 13 -39 32 -41 41 -3 17 0 16 43 -2 26 -11 54 -20 63 -19 14
0 14 2 2 6 -8 3 -28 17 -45 31 -16 14 -58 38 -92 53 -36 16 -63 35 -63 43 0 8
-4 16 -8 18 -5 2 -26 30 -47 63 -39 60 -123 147 -202 208 -23 17 -45 43 -48
56 -3 14 -14 36 -24 50 -10 14 -24 43 -30 63 -7 20 -18 41 -25 47 -7 6 -28 40
-45 76 -18 35 -36 67 -41 70 -5 3 -7 12 -3 20 3 8 0 15 -5 15 -6 0 -14 10 -18
22 -8 26 -19 41 -63 84 l-34 33 29 6 c56 13 55 11 38 57 -18 53 -41 181 -54
313 -5 55 -14 134 -20 175 -17 118 -26 520 -15 705 6 106 6 307 0 335 -3 14
-7 41 -10 60 -2 19 -12 69 -21 110 -9 41 -20 97 -25 125 -5 27 -13 61 -18 75
-5 14 -15 48 -21 75 -17 68 -48 161 -71 213 -33 73 -193 175 -301 192 -29 4
-71 17 -93 29 -21 11 -49 21 -62 21 -12 0 -115 45 -228 100 -113 55 -209 100
-213 100 -4 0 -25 15 -47 32 -36 30 -40 25 -10 -12 23 -28 27 -71 9 -91 -9
-10 -20 -16 -24 -14 -4 2 -15 -4 -25 -15 -25 -28 -35 -25 -35 9 0 16 -6 31
-15 35 -8 3 -15 11 -15 18 0 9 3 8 10 -2 5 -8 10 -10 10 -4 0 5 -4 14 -9 20
-8 7 -14 104 -11 179 3 55 -8 234 -14 244 -4 6 -3 11 3 11 7 0 7 8 2 23 -7 17
-3 29 14 52 21 25 22 31 11 54 -17 33 -19 137 -5 215 11 64 47 156 61 156 4 0
8 16 8 35 0 19 3 35 8 35 4 0 23 30 42 68 19 37 38 69 43 70 4 2 7 9 7 16 0
26 45 71 68 68 26 -4 27 -10 5 -42 -12 -16 -17 -42 -16 -79 1 -46 -2 -57 -22
-72 -21 -17 -37 -67 -60 -186 -6 -31 -5 -33 22 -33 40 0 66 22 87 72 10 24 25
59 33 78 11 25 12 35 3 38 -8 3 -7 9 3 21 15 17 51 124 62 184 4 20 4 57 0 82
l-6 45 -42 -2 -42 -3 2 80 c1 44 7 114 13 155 9 57 9 96 0 160 -12 90 -55 233
-76 254 -6 7 -22 36 -34 64 -22 51 -78 112 -104 112 -7 0 -51 20 -99 45 -160
84 -327 106 -485 65z m728 -336 c0 -14 9 -38 20 -54 18 -26 18 -40 -2 -40 -4
0 -8 10 -8 23 0 13 -5 28 -11 34 -14 14 -20 63 -8 63 5 0 9 -12 9 -26z m37
-126 c-3 -8 -6 -5 -6 6 -1 11 2 17 5 13 3 -3 4 -12 1 -19z m23 -71 c0 -24 -3
-28 -10 -17 -13 20 -13 63 0 55 6 -3 10 -21 10 -38z m-150 29 c0 -3 -4 -8 -10
-11 -5 -3 -10 -1 -10 4 0 6 5 11 10 11 6 0 10 -2 10 -4z m136 -127 c0 -27 -3
-44 -7 -37 -13 24 -15 88 -1 88 4 0 7 -23 8 -51z m-1137 -35 c4 3 8 0 9 -7 1
-7 4 -30 7 -52 4 -25 3 -35 -3 -27 -7 11 -10 10 -16 -3 -3 -9 -11 -13 -17 -9
-6 3 -15 0 -20 -7 -6 -9 -9 2 -9 31 0 44 29 107 38 82 2 -7 7 -10 11 -8z
m1039 -10 c5 -9 13 -15 18 -15 5 1 9 -2 9 -6 0 -5 3 -12 7 -18 14 -23 13 -99
-2 -90 -6 4 -8 11 -5 16 4 5 2 9 -3 9 -9 0 -17 -28 -25 -85 -5 -35 -19 -75
-26 -75 -20 0 -31 30 -31 83 0 53 2 59 18 55 17 -5 19 1 16 68 -2 72 6 91 24
58z m99 -44 c0 -20 -3 -26 -9 -18 -10 17 -10 48 0 48 5 0 9 -14 9 -30z m-1088
-115 c-6 -19 -9 -47 -7 -61 2 -15 -3 -29 -9 -31 -16 -6 -18 63 -3 101 15 40
30 32 19 -9z m861 -90 c0 -8 -4 -15 -10 -15 -5 0 -7 7 -4 15 4 8 8 15 10 15 2
0 4 -7 4 -15z m-473 -287 c-3 -8 -6 -5 -6 6 -1 11 2 17 5 13 3 -3 4 -12 1 -19z
m183 2 c0 -5 -2 -10 -4 -10 -3 0 -8 5 -11 10 -3 6 -1 10 4 10 6 0 11 -4 11
-10z m349 -1133 c-2 -1 -14 -11 -26 -21 -13 -11 -23 -16 -23 -13 0 10 31 37
42 37 6 0 9 -1 7 -3z m-2186 -2564 c-7 -2 -19 -2 -25 0 -7 3 -2 5 12 5 14 0
19 -2 13 -5z m-221 -385 c-12 -12 -35 -1 -27 12 3 5 13 6 21 3 10 -4 12 -9 6
-15z m-720 -799 c-19 -17 -37 -27 -40 -24 -8 8 44 55 61 55 7 0 -3 -14 -21
-31z m3828 -13 c0 -2 -8 -10 -17 -17 -16 -13 -17 -12 -4 4 13 16 21 21 21 13z
m-43 -39 c0 -8 -6 -14 -14 -14 -9 0 -10 4 -2 14 6 7 12 13 14 13 1 0 2 -6 2
-13z m-3984 -42 c-3 -9 -8 -14 -10 -11 -3 3 -2 9 2 15 9 16 15 13 8 -4z m3997
1 c0 -2 -9 -6 -20 -9 -11 -3 -18 -1 -14 4 5 9 34 13 34 5z m1598 -31 c12 -25
12 -25 -13 -9 -27 18 -33 34 -12 34 8 0 19 -11 25 -25z m-5658 -18 c0 -2 -10
-12 -22 -23 l-23 -19 19 23 c18 21 26 27 26 19z m5921 -124 c13 -16 12 -17 -3
-4 -10 7 -18 15 -18 17 0 8 8 3 21 -13z"/>
<path d="M1391 2773 c-10 -26 -10 -27 4 -9 8 11 15 23 15 28 0 15 -7 8 -19
-19z"/>
<path d="M1292 2584 c-7 -14 -8 -23 -2 -19 15 9 32 45 22 45 -5 0 -14 -12 -20
-26z"/>
<path d="M1169 2403 c-13 -16 -12 -17 4 -4 9 7 17 15 17 17 0 8 -8 3 -21 -13z"/>
<path d="M5058 173 c7 -3 16 -2 19 1 4 3 -2 6 -13 5 -11 0 -14 -3 -6 -6z"/>
</g>
</svg>
