<svg xmlns="http://www.w3.org/2000/svg" viewBox="0 0 48 48" id="Rocket"><circle cx="37.045" cy="28.409" r="12.5" fill="#6d48b7" fill-rule="evenodd" transform="matrix(1.92 0 0 1.92 -47.127 -30.545)" class="color50b748 svgShape"></circle><path fill="#9d75ee" fill-rule="evenodd" d="m20.033 30.269 1.167 1.167c5.612-2.31 11.696-6.762 14.913-13.108l.361-.667C37.453 15.354 38 12.77 38 10c-2.77 0-5.308.577-7.614 1.556l-.747.395c-6.346 3.218-10.797 9.203-13.108 14.815l1.167 1.167" class="coloree7581 svgShape"></path><path fill="#f2f0f7" fill-rule="evenodd" d="M16.826 26.06c1.157-2.67 2.602-4.96 4.148-6.977-3.735-1.868-9.19 1.908-11.973 8.422 4.184-3.245 6.565-3.64 7.825-1.446zM21.9 31.13a33.21 33.21 0 0 0 7.02-4.103c1.868 3.735-1.909 9.19-8.423 11.973 3.246-4.184 3.597-6.61 1.403-7.87zm16.1-21.13c-2.769 0-5.307.577-7.613 1.556l6.088 6.104C37.453 15.354 38 12.77 38 10zM25.124 22.925c.429 3.705-3.758 6.488-10.375 10.327 3.834-6.622 6.622-10.804 10.327-10.375l.04.024z" class="colorf0f4f7 svgShape"></path><path fill="#a078f0" d="M30.43 20.358a1.971 1.971 0 0 1-2.787 0 1.971 1.971 0 0 1 0-2.788 1.971 1.971 0 0 1 2.788 0 1.971 1.971 0 0 1 0 2.788z" class="color78c8f0 svgShape"></path><path fill="#6829e6" fill-rule="evenodd" style="line-height:normal;text-indent:0;text-align:start;text-decoration-line:none;text-decoration-style:solid;text-decoration-color:#000;text-transform:none;block-progression:tb;isolation:auto;mix-blend-mode:normal" d="m7.322 1042.67-3.9 3.902.473.475 2.068-2.069c.466-.804.918-1.577 1.36-2.308zm-4.375 4.376-.473.473.473.474.474-.474-.474-.473zm2.893-.998-2.893 2.893.475.472 2.892-2.892c-.012 0-.025-.01-.037-.016l-.011-.01-.047-.03.006.01a.885.885 0 0 1-.117-.086l-.012-.011c-.008-.01-.016-.014-.024-.022h-.008l-.006-.01c-.007-.01-.014-.01-.021-.02l-.008-.01c-.008-.01-.017-.015-.025-.025a.953.953 0 0 1-.043-.05l-.004-.01c-.018-.021-.032-.047-.047-.071a.519.519 0 0 1-.06-.094c-.004-.01-.008-.013-.01-.02zm-3.366 3.366-.474.474.474.474.473-.474-.473-.474zm7.182-4.34c-.732.442-1.504.895-2.308 1.361l-2.506 2.506.474.473zm-5.288 4.34-.473.474.473.474.474-.474-.474-.474z" color="#000" font-family="sans-serif" font-weight="400" overflow="visible" transform="translate(8 -1012.362)" class="color8fb6d7 svgShape"></path></svg>