<svg width="59" height="37" viewBox="0 0 59 37" fill="none" xmlns="http://www.w3.org/2000/svg">
<path d="M44.0596 18.8834C41.7806 18.8834 40.2613 20.6696 40.2613 22.711C40.2613 24.7524 42.0339 26.5386 44.0596 26.5386C45.5789 26.5386 46.845 25.7731 47.6047 24.2421C47.3515 24.2421 47.0982 24.2421 46.845 24.2421C45.5789 24.2421 44.8193 23.2214 44.8193 21.9455C44.8193 20.9248 45.5789 19.9041 46.5918 19.649C47.3515 19.649 48.3643 19.3938 48.3643 19.3938C50.3901 19.3938 51.9094 20.9248 51.9094 22.9662C51.9094 22.9662 51.9094 23.2214 51.9094 23.4765C51.1497 27.5593 47.3515 30.6214 43.8064 30.6214C38.2356 30.6214 35.7034 27.3041 34.1841 21.18C33.9309 20.1593 32.918 14.8007 32.4115 13.5248C29.6261 4.84896 25.3214 0.255859 16.712 0.255859C9.11541 0.255859 2.02528 5.86965 1.26562 17.0972H15.1927H15.4459C17.4716 17.0972 19.2442 15.311 19.2442 13.2697C19.2442 11.2283 17.4716 9.44207 15.4459 9.44207C13.9266 9.44207 12.6605 10.2076 11.9008 11.7386C12.154 11.7386 12.4073 11.7386 12.6605 11.7386C13.9266 11.7386 14.6862 12.7593 14.6862 14.0352C14.433 15.311 13.6734 16.3317 12.6605 16.5869C11.9008 16.5869 10.8879 16.8421 10.8879 16.8421C8.86219 16.8421 7.34288 15.311 7.34288 13.2697C7.34288 13.2697 7.34288 13.0145 7.34288 12.7593C8.10254 8.67655 11.9008 5.61448 15.4459 5.61448C21.0167 5.61448 23.5489 8.93172 25.0682 15.0559C25.3214 16.0765 26.5875 21.6903 27.094 22.9662C30.1326 31.3869 34.6905 35.98 43.0467 35.98C50.6433 35.98 57.227 31.3869 57.9867 19.1386H44.0596V18.8834Z" fill="white"/>
</svg>
