<?xml version="1.0" standalone="no"?>
<svg id="Vector" width="139" height="185" viewBox="0 0 139 185" fill="none" xmlns="http://www.w3.org/2000/svg" style="max-width: 100%; max-height: 100%;">
<path d="M4.97733 183.534C6.46692 184.308 8.1394 184.663 9.81523 184.559C11.4911 184.455 13.107 183.897 14.4895 182.944L134.198 100.069C135.421 99.2218 136.421 98.0905 137.111 96.7723C137.802 95.454 138.162 93.9881 138.162 92.5C138.162 91.0119 137.802 89.546 137.111 88.2277C136.421 86.9095 135.421 85.7782 134.198 84.9308L14.4895 2.05575C13.1096 1.09306 11.4918 0.527705 9.81259 0.421318C8.13338 0.314932 6.45718 0.6716 4.96676 1.45243C3.47633 2.23327 2.22889 3.4083 1.36041 4.84942C0.491941 6.29054 0.0357803 7.94243 0.041667 9.625V175.375C0.04139 177.056 0.501191 178.705 1.37123 180.143C2.24128 181.581 3.48837 182.754 4.97733 183.534ZM18.4583 27.2037L112.779 92.5L18.4583 157.796V27.2037Z" fill="black" stroke-dasharray="0,0,0,874.8408813476562"><animate attributeType="XML" attributeName="stroke-dasharray" repeatCount="1" dur="0.7692307692307693s" values="0,0,0,874.8408813476562; 
          0,437.4204406738281,437.4204406738281,0; 
          874.8408813476562,0,0,0" keyTimes="0; 0.5; 1" fill="freeze"></animate></path>
<setting>{"type":"direct","speed":65,"random":1,"shift":1,"size":1,"rupture":50}</setting></svg>