<?xml version="1.0" standalone="no"?>
<svg id="bx:right-arrow" width="221" height="221" viewBox="0 0 221 221" fill="none" xmlns="http://www.w3.org/2000/svg" style="max-width: 100%; max-height: 100%;">
<path d="M50.9773 201.534C52.4669 202.308 54.1394 202.663 55.8152 202.559C57.4911 202.455 59.107 201.897 60.4895 200.944L180.198 118.069C181.421 117.222 182.421 116.091 183.111 114.772C183.802 113.454 184.162 111.988 184.162 110.5C184.162 109.012 183.802 107.546 183.111 106.228C182.421 104.909 181.421 103.778 180.198 102.931L60.4895 20.0557C59.1096 19.0931 57.4918 18.5277 55.8126 18.4213C54.1334 18.3149 52.4572 18.6716 50.9668 19.4524C49.4763 20.2333 48.2289 21.4083 47.3604 22.8494C46.4919 24.2905 46.0358 25.9424 46.0417 27.625V193.375C46.0414 195.056 46.5012 196.705 47.3712 198.143C48.2413 199.581 49.4884 200.754 50.9773 201.534ZM64.4583 45.2037L158.779 110.5L64.4583 175.796V45.2037Z" fill="black" stroke-dasharray="0,0,0,874.8409423828125"><animate attributeType="XML" attributeName="stroke-dasharray" repeatCount="1" dur="2.380952380952381s" values="0,0,0,874.8409423828125; 
          0,437.42047119140625,437.42047119140625,0; 
          874.8409423828125,0,0,0" keyTimes="0; 0.5; 1" fill="freeze"></animate></path>
<setting>{"type":"direct","speed":21,"random":1,"shift":1,"size":1,"rupture":50}</setting></svg>