<svg width="18" height="15" viewBox="0 0 18 15" fill="none" xmlns="http://www.w3.org/2000/svg">
<path d="M0.948242 14.2806V12.4056H2.73991V2.19727C2.73991 1.85004 2.86144 1.5549 3.10449 1.31185C3.34755 1.06879 3.64269 0.947266 3.98991 0.947266H16.9066V2.19727H3.98991V12.4056H8.86491V14.2806H0.948242ZM10.9274 14.2806C10.6913 14.2806 10.4969 14.1868 10.3441 13.9993C10.1913 13.8118 10.1149 13.6 10.1149 13.3639V4.25977C10.1149 4.02365 10.1913 3.82921 10.3441 3.67643C10.4969 3.52365 10.6913 3.44727 10.9274 3.44727H16.5941C16.858 3.44727 17.0941 3.52018 17.3024 3.66602C17.5107 3.81185 17.6149 4.00977 17.6149 4.25977V13.3639C17.6149 13.6278 17.5142 13.8466 17.3128 14.0202C17.1114 14.1938 16.8719 14.2806 16.5941 14.2806H10.9274ZM11.3649 12.4056H16.3649V4.69727H11.3649V12.4056Z" fill="url(#paint0_linear_307_66)"/>
<defs>
<linearGradient id="paint0_linear_307_66" x1="9.28158" y1="0.947266" x2="9.28158" y2="14.2806" gradientUnits="userSpaceOnUse">
<stop offset="0.286458" stop-color="#00CCFF"/>
<stop offset="1" stop-color="#0C92F6"/>
</linearGradient>
</defs>
</svg>
