<svg width="17" height="15" viewBox="0 0 17 15" fill="none" xmlns="http://www.w3.org/2000/svg">
<path d="M15.5947 0.798828H1.84473C1.51321 0.798828 1.19526 0.930524 0.960843 1.16494C0.726423 1.39937 0.594727 1.71731 0.594727 2.04883V13.2988C0.594727 13.6303 0.726423 13.9483 0.960843 14.1827C1.19526 14.4171 1.51321 14.5488 1.84473 14.5488H15.5947C15.9262 14.5488 16.2442 14.4171 16.4786 14.1827C16.713 13.9483 16.8447 13.6303 16.8447 13.2988V2.04883C16.8447 1.71731 16.713 1.39937 16.4786 1.16494C16.2442 0.930524 15.9262 0.798828 15.5947 0.798828ZM1.84473 2.04883H15.5947V5.17383H1.84473V2.04883ZM1.84473 6.42383H6.21973V13.2988H1.84473V6.42383ZM15.5947 13.2988H7.46973V6.42383H15.5947V13.2988Z" fill="url(#paint0_linear_420_3)"/>
<defs>
<linearGradient id="paint0_linear_420_3" x1="8.71973" y1="0.798828" x2="8.71973" y2="14.5488" gradientUnits="userSpaceOnUse">
<stop offset="0.286458" stop-color="#00CCFF"/>
<stop offset="1" stop-color="#0C92F6"/>
</linearGradient>
</defs>
</svg>
