<svg width="26" height="30" viewBox="0 0 14 18" fill="none" xmlns="http://www.w3.org/2000/svg">
<path d="M6.69108 17.2018C4.74664 16.7157 3.14941 15.5872 1.89941 13.8164C0.649414 12.0456 0.0244141 10.1046 0.0244141 7.99349V3.03516L6.69108 0.535156L13.3577 3.03516V7.99349C13.3577 10.1046 12.7327 12.0456 11.4827 13.8164C10.2327 15.5872 8.63552 16.7157 6.69108 17.2018ZM6.69108 15.9102C8.1633 15.424 9.38205 14.5317 10.3473 13.2331C11.3126 11.9345 11.8786 10.4796 12.0452 8.86849H6.69108V1.88932L1.27441 3.91016V7.99349C1.27441 8.16016 1.27789 8.30252 1.28483 8.42057C1.29177 8.53863 1.30914 8.68793 1.33691 8.86849H6.69108V15.9102Z" fill="url(#paint0_linear_307_75)"/>
<defs>
<linearGradient id="paint0_linear_307_75" x1="6.69108" y1="0.535156" x2="6.69108" y2="17.2018" gradientUnits="userSpaceOnUse">
<stop offset="0.286458" stop-color="#2ABBEB"/>
<stop offset="1" stop-color="#2A64EB"/>
</linearGradient>
</defs>
</svg>
